<?xml version="1.0" encoding="UTF-8"?>
<svg width="4220px" height="3938px" viewBox="0 0 4220 3938" version="1.1" xmlns="http://www.w3.org/2000/svg" xmlns:xlink="http://www.w3.org/1999/xlink">
    <!-- Generator: Sketch 56.3 (81716) - https://sketch.com -->
    <title>Group 20</title>
    <desc>Created with Sketch.</desc>
    <g id="Wireframes" stroke="none" stroke-width="1" fill="none" fill-rule="evenodd">
        <g id="Group-20" fill-rule="nonzero">
            <circle id="Oval" fill="#011E41" transform="translate(2138.000000, 1240.000000) rotate(-180.000000) translate(-2138.000000, -1240.000000) " cx="2138" cy="1240" r="1240"></circle>
            <circle id="Oval" fill="#011E41" transform="translate(2980.000000, 2698.000000) rotate(-180.000000) translate(-2980.000000, -2698.000000) " cx="2980" cy="2698" r="1240"></circle>
            <circle id="Oval" fill="#011E41" transform="translate(1240.000000, 2698.000000) rotate(-180.000000) translate(-1240.000000, -2698.000000) " cx="1240" cy="2698" r="1240"></circle>
            <path d="M930,1498.8 C1033.12063,1471.63541 1139.32149,1457.92166 1245.96,1457.99967 C1847.12,1457.99967 2348.15,1887.62 2460,2457.2 C2356.87937,2484.36459 2250.67851,2498.07834 2144.04,2498.00033 C1542.88,2498.00033 1041.85,2068.38 930,1498.8 L930,1498.8 Z" id="Path" fill="#3D7DCA" transform="translate(1695.000000, 1978.000000) rotate(-180.000000) translate(-1695.000000, -1978.000000) "></path>
            <path d="M1770,2440.82 C1888.66,1879.41 2387.97,1458 2985.9,1458 C3116.26,1458 3241.94,1478.03 3360,1515.18 C3241.34,2076.59 2742.03,2498 2144.1,2498 C2013.74,2498 1888.06,2477.97 1770,2440.82 Z" id="Path" fill="#3D7DCA" transform="translate(2565.000000, 1978.000000) rotate(-180.000000) translate(-2565.000000, -1978.000000) "></path>
            <path d="M2114,1816 C2342.4,2041.27 2484,2354.57 2484,2701 C2484,3047.43 2342.4,3360.73 2114,3586 C1885.6,3360.73 1744,3047.43 1744,2701 C1744,2354.57 1885.6,2041.27 2114,1816 Z" id="Path" fill="#3D7DCA" transform="translate(2114.000000, 2701.000000) rotate(-180.000000) translate(-2114.000000, -2701.000000) "></path>
            <path d="M2116.67,2498.00004 C1942.67,2327.56004 1819.03,2106.39004 1770,1858.58004 C1821.03783,1845.21559 1872.8765,1835.12175 1925.2,1828.36004 C1978.74537,1821.44658 2032.68016,1817.98609 2086.67,1818 C2216.77,1818 2342.17,1837.93004 2460,1874.88004 C2408.85,2116.08004 2286.85,2331.31004 2116.67,2498.00004 L2116.67,2498.00004 Z" id="Path" fill="#FED925" transform="translate(2115.000000, 2158.000021) rotate(-180.000000) translate(-2115.000000, -2158.000021) "></path>
            <path d="M1994.428,961.272 L1994.428,982.872 C1990.972,983.16 1989.82,983.16 1987.804,983.16 C1977.004,983.16 1967.356,979.992 1962.604,974.808 C1952.812,980.712 1943.596,983.16 1932.652,983.16 C1902.7,983.16 1876.348,958.824 1876.348,929.448 C1876.348,897.912 1900.54,872.424 1932.364,872.424 C1964.764,872.424 1989.244,898.2 1989.244,927 C1989.244,939.24 1986.652,948.888 1980.46,957.672 C1983.196,960.12 1987.372,961.416 1991.548,961.416 C1992.268,961.416 1993.42,961.416 1994.428,961.272 Z M1903.708,923.112 L1903.708,923.256 C1908.892,921.096 1913.212,919.656 1918.828,919.656 C1932.652,919.656 1946.764,927.864 1958.428,942.12 C1961.164,937.368 1962.028,932.04 1962.028,926.424 C1962.028,909.72 1949.932,896.328 1932.364,896.328 C1917.82,896.328 1907.02,906.408 1903.708,923.112 Z M1944.604,956.664 C1934.812,944.136 1926.748,939.528 1915.804,939.528 C1912.492,939.528 1909.9,940.104 1906.444,941.256 C1911.484,952.344 1921.852,959.256 1932.364,959.256 C1936.54,959.256 1941.004,958.536 1944.604,956.664 Z M2078.668,981 L2056.06,981 L2056.06,972.504 L2055.772,972.504 C2052.316,979.848 2045.98,983.592 2035.18,983.592 C2018.332,983.592 2004.364,973.512 2004.364,950.76 L2004.364,901.08 L2028.268,901.08 L2028.268,945.864 C2028.268,956.376 2032.012,961.272 2041.084,961.272 C2050.156,961.272 2054.764,955.224 2054.764,945.432 L2054.764,901.08 L2078.668,901.08 L2078.668,981 Z M2179.9,981 L2155.996,981 L2155.996,972.36 L2155.708,972.36 C2152.252,979.416 2142.748,983.736 2132.236,983.736 C2108.62,983.736 2092.204,965.16 2092.204,940.968 C2092.204,917.352 2109.34,898.344 2132.236,898.344 C2142.028,898.344 2151.1,902.232 2155.708,909.576 L2155.996,909.576 L2155.996,901.08 L2179.9,901.08 L2179.9,981 Z M2135.98,961.416 C2147.212,961.416 2155.996,952.488 2155.996,940.968 C2155.996,929.736 2146.924,920.664 2135.692,920.664 C2124.748,920.664 2116.108,929.736 2116.108,941.256 C2116.108,952.344 2124.892,961.416 2135.98,961.416 Z M2221.948,981 L2198.044,981 L2198.044,874.44 L2221.948,874.44 L2221.948,981 Z M2263.132,892.584 L2239.228,892.584 L2239.228,874.44 L2263.132,874.44 L2263.132,892.584 Z M2263.132,981 L2239.228,981 L2239.228,901.08 L2263.132,901.08 L2263.132,981 Z M2309.788,981 L2285.884,981 L2285.884,919.224 L2274.076,919.224 L2274.076,901.08 L2285.884,901.08 L2285.884,874.44 L2309.788,874.44 L2309.788,901.08 L2321.308,901.08 L2321.308,919.224 L2309.788,919.224 L2309.788,981 Z M2365.516,1007.64 L2340.172,1007.64 L2352.844,976.968 L2323.18,901.08 L2348.668,901.08 L2364.652,947.448 L2364.94,947.448 L2380.204,901.08 L2405.548,901.08 L2365.516,1007.64 Z M1744.084,1135 L1720.18,1135 L1704.196,1066.024 L1703.908,1066.024 L1687.924,1135 L1663.3,1135 L1635.796,1028.44 L1663.444,1028.44 L1677.7,1097.704 L1677.988,1097.704 L1693.684,1028.44 L1714.564,1028.44 L1729.972,1097.992 L1730.26,1097.992 L1744.804,1028.44 L1772.308,1028.44 L1744.084,1135 Z M1859.14,1094.68 C1859.14,1119.736 1840.132,1137.448 1816.084,1137.448 C1791.748,1137.448 1773.028,1119.448 1773.028,1094.968 C1773.028,1070.2 1792.18,1052.488 1816.084,1052.488 C1840.132,1052.488 1859.14,1070.488 1859.14,1094.68 Z M1816.084,1115.128 C1827.316,1115.128 1835.236,1105.624 1835.236,1094.968 C1835.236,1084.312 1827.172,1074.808 1815.94,1074.808 C1805.428,1074.808 1796.932,1084.024 1796.932,1094.968 C1796.932,1105.912 1805.284,1115.128 1816.084,1115.128 Z M1896.436,1135 L1872.532,1135 L1872.532,1055.08 L1894.996,1055.08 L1894.996,1063.576 L1895.284,1063.576 C1899.46,1055.08 1906.084,1052.344 1915.3,1052.344 L1915.3,1076.392 C1901.044,1076.536 1896.436,1081.864 1896.436,1090.936 L1896.436,1135 Z M2002.564,1135 L1975.492,1135 L1952.884,1096.552 L1952.596,1096.552 L1952.596,1135 L1928.692,1135 L1928.692,1028.44 L1952.596,1028.44 L1952.596,1084.024 L1952.884,1084.024 L1975.06,1055.08 L2003.428,1055.08 L1973.332,1090.216 L2002.564,1135 Z M2135.62,1135 L2111.716,1135 L2111.716,1091.944 C2111.716,1079.416 2107.684,1074.808 2099.476,1074.808 C2090.404,1074.808 2086.228,1080.28 2086.228,1090.792 L2086.228,1135 L2062.324,1135 L2062.324,1090.936 C2062.324,1080.568 2058.58,1074.808 2050.372,1074.808 C2041.012,1074.808 2036.836,1080.856 2036.836,1091.944 L2036.836,1135 L2012.932,1135 L2012.932,1055.08 L2035.252,1055.08 L2035.252,1063.576 L2035.54,1063.576 C2039.716,1056.088 2047.348,1052.344 2057.572,1052.344 C2067.94,1052.344 2075.572,1057.528 2080.612,1066.6 C2086.372,1057.528 2095.012,1052.344 2105.956,1052.344 C2123.812,1052.344 2135.62,1063.288 2135.62,1085.608 L2135.62,1135 Z M2236.42,1135 L2212.516,1135 L2212.516,1126.36 L2212.228,1126.36 C2208.772,1133.416 2199.268,1137.736 2188.756,1137.736 C2165.14,1137.736 2148.724,1119.16 2148.724,1094.968 C2148.724,1071.352 2165.86,1052.344 2188.756,1052.344 C2198.548,1052.344 2207.62,1056.232 2212.228,1063.576 L2212.516,1063.576 L2212.516,1055.08 L2236.42,1055.08 L2236.42,1135 Z M2192.5,1115.416 C2203.732,1115.416 2212.516,1106.488 2212.516,1094.968 C2212.516,1083.736 2203.444,1074.664 2192.212,1074.664 C2181.268,1074.664 2172.628,1083.736 2172.628,1095.256 C2172.628,1106.344 2181.412,1115.416 2192.5,1115.416 Z M2327.86,1135 L2303.956,1135 L2303.956,1090.648 C2303.956,1079.848 2300.212,1074.808 2291.428,1074.808 C2281.78,1074.808 2277.748,1080.136 2277.748,1090.936 L2277.748,1135 L2253.844,1135 L2253.844,1055.08 L2276.164,1055.08 L2276.164,1063.576 L2276.452,1063.576 C2281.492,1055.368 2288.548,1052.344 2298.196,1052.344 C2312.596,1052.344 2327.86,1060.408 2327.86,1084.024 L2327.86,1135 Z M2402.308,1077.544 L2378.836,1077.544 C2378.692,1072.936 2375.38,1071.496 2371.492,1071.496 C2367.46,1071.496 2364.58,1073.8 2364.58,1076.824 C2364.58,1081.144 2368.468,1083.304 2379.556,1086.184 C2398.564,1091.224 2404.756,1098.856 2404.756,1110.52 C2404.756,1127.224 2390.356,1137.736 2372.212,1137.736 C2354.212,1137.736 2341.396,1127.512 2339.668,1111.24 L2363.428,1111.24 C2364.148,1116.28 2367.748,1118.584 2372.5,1118.584 C2376.676,1118.584 2380.852,1116.136 2380.852,1112.392 C2380.852,1107.928 2378.116,1105.624 2366.164,1101.88 C2346.004,1095.688 2340.676,1087.768 2340.676,1078.408 C2340.676,1062.568 2355.508,1052.344 2371.636,1052.344 C2388.916,1052.344 2401.156,1061.848 2402.308,1077.544 Z M2490.724,1135 L2466.82,1135 L2466.82,1091.08 C2466.82,1080.712 2462.788,1074.808 2454.004,1074.808 C2444.932,1074.808 2440.612,1080.136 2440.612,1090.072 L2440.612,1135 L2416.708,1135 L2416.708,1028.44 L2440.612,1028.44 L2440.612,1062.712 C2444.068,1056.232 2451.844,1052.344 2461.348,1052.344 C2479.636,1052.344 2490.724,1063.864 2490.724,1084.744 L2490.724,1135 Z M2531.62,1046.584 L2507.716,1046.584 L2507.716,1028.44 L2531.62,1028.44 L2531.62,1046.584 Z M2531.62,1135 L2507.716,1135 L2507.716,1055.08 L2531.62,1055.08 L2531.62,1135 Z M2575.684,1161.64 L2551.78,1161.64 L2551.78,1055.08 L2574.244,1055.08 L2574.244,1063.864 L2574.676,1063.864 C2581.012,1055.944 2589.796,1052.344 2599.732,1052.344 C2622.484,1052.344 2638.612,1070.92 2638.612,1095.832 C2638.612,1118.584 2622.628,1137.736 2599.732,1137.736 C2590.372,1137.736 2582.164,1134.856 2575.684,1127.8 L2575.684,1161.64 Z M2594.692,1115.416 C2606.068,1115.416 2614.708,1106.2 2614.708,1095.112 C2614.708,1083.88 2606.068,1074.664 2594.548,1074.664 C2583.604,1074.664 2574.676,1083.592 2574.676,1095.112 C2574.676,1106.344 2583.316,1115.416 2594.692,1115.416 Z" id="QualityWorkmanship" fill="#FFFFFF"></path>
            <path d="M806.412,2701 L747.228,2701 L747.228,2594.44 L806.412,2594.44 L806.412,2618.344 L773.292,2618.344 L773.292,2634.904 L805.404,2634.904 L805.404,2658.808 L773.292,2658.808 L773.292,2677.096 L806.412,2677.096 L806.412,2701 Z M904.044,2701 L874.812,2701 L858.828,2676.232 L842.556,2701 L813.756,2701 L844.14,2658.232 L817.212,2621.08 L845.868,2621.08 L858.828,2642.104 L871.644,2621.08 L900.012,2621.08 L873.084,2658.232 L904.044,2701 Z M936.876,2727.64 L912.972,2727.64 L912.972,2621.08 L935.436,2621.08 L935.436,2629.864 L935.868,2629.864 C942.204,2621.944 950.988,2618.344 960.924,2618.344 C983.676,2618.344 999.804,2636.92 999.804,2661.832 C999.804,2684.584 983.82,2703.736 960.924,2703.736 C951.564,2703.736 943.356,2700.856 936.876,2693.8 L936.876,2727.64 Z M955.884,2681.416 C967.26,2681.416 975.9,2672.2 975.9,2661.112 C975.9,2649.88 967.26,2640.664 955.74,2640.664 C944.796,2640.664 935.868,2649.592 935.868,2661.112 C935.868,2672.344 944.508,2681.416 955.884,2681.416 Z M1092.54,2668.312 L1032.636,2668.312 C1033.932,2677.384 1041.564,2683.432 1051.356,2683.432 C1057.836,2683.432 1062.012,2680.984 1065.9,2675.944 L1090.38,2675.944 C1082.748,2693.368 1068.204,2703.592 1051.356,2703.592 C1028.316,2703.592 1009.02,2685.016 1009.02,2661.256 C1009.02,2638.216 1027.452,2618.344 1050.924,2618.344 C1074.828,2618.344 1093.116,2637.208 1093.116,2661.976 C1093.116,2664.28 1092.972,2666.152 1092.54,2668.312 Z M1032.924,2652.184 L1069.212,2652.184 C1067.34,2643.976 1060.14,2638.504 1050.924,2638.504 C1042.284,2638.504 1034.796,2643.688 1032.924,2652.184 Z M1130.124,2701 L1106.22,2701 L1106.22,2621.08 L1128.684,2621.08 L1128.684,2629.576 L1128.972,2629.576 C1133.148,2621.08 1139.772,2618.344 1148.988,2618.344 L1148.988,2642.392 C1134.732,2642.536 1130.124,2647.864 1130.124,2656.936 L1130.124,2701 Z M1190.172,2701 L1166.268,2701 L1166.268,2639.224 L1154.46,2639.224 L1154.46,2621.08 L1166.268,2621.08 L1166.268,2594.44 L1190.172,2594.44 L1190.172,2621.08 L1201.692,2621.08 L1201.692,2639.224 L1190.172,2639.224 L1190.172,2701 Z M652.476,2855 L620.652,2855 L591.564,2808.92 L591.276,2808.92 L591.276,2855 L564.06,2855 L564.06,2748.44 L591.276,2748.44 L591.276,2796.392 L591.564,2796.392 L621.66,2748.44 L650.172,2748.44 L614.892,2801.576 L652.476,2855 Z M735.996,2855 L712.092,2855 L712.092,2810.648 C712.092,2799.848 708.348,2794.808 699.564,2794.808 C689.916,2794.808 685.884,2800.136 685.884,2810.936 L685.884,2855 L661.98,2855 L661.98,2775.08 L684.3,2775.08 L684.3,2783.576 L684.588,2783.576 C689.628,2775.368 696.684,2772.344 706.332,2772.344 C720.732,2772.344 735.996,2780.408 735.996,2804.024 L735.996,2855 Z M835.356,2814.68 C835.356,2839.736 816.348,2857.448 792.3,2857.448 C767.964,2857.448 749.244,2839.448 749.244,2814.968 C749.244,2790.2 768.396,2772.488 792.3,2772.488 C816.348,2772.488 835.356,2790.488 835.356,2814.68 Z M792.3,2835.128 C803.532,2835.128 811.452,2825.624 811.452,2814.968 C811.452,2804.312 803.388,2794.808 792.156,2794.808 C781.644,2794.808 773.148,2804.024 773.148,2814.968 C773.148,2825.912 781.5,2835.128 792.3,2835.128 Z M934.14,2855 L912.108,2855 L898.716,2803.304 L898.428,2803.304 L885.036,2855 L862.86,2855 L838.38,2775.08 L863.148,2775.08 L875.1,2824.76 L875.388,2824.76 L888.492,2775.08 L908.652,2775.08 L921.9,2824.76 L922.188,2824.76 L934.14,2775.08 L958.764,2775.08 L934.14,2855 Z M994.476,2855 L970.572,2855 L970.572,2748.44 L994.476,2748.44 L994.476,2855 Z M1090.956,2822.312 L1031.052,2822.312 C1032.348,2831.384 1039.98,2837.432 1049.772,2837.432 C1056.252,2837.432 1060.428,2834.984 1064.316,2829.944 L1088.796,2829.944 C1081.164,2847.368 1066.62,2857.592 1049.772,2857.592 C1026.732,2857.592 1007.436,2839.016 1007.436,2815.256 C1007.436,2792.216 1025.868,2772.344 1049.34,2772.344 C1073.244,2772.344 1091.532,2791.208 1091.532,2815.976 C1091.532,2818.28 1091.388,2820.152 1090.956,2822.312 Z M1031.34,2806.184 L1067.628,2806.184 C1065.756,2797.976 1058.556,2792.504 1049.34,2792.504 C1040.7,2792.504 1033.212,2797.688 1031.34,2806.184 Z M1188.012,2855 L1165.26,2855 L1165.26,2846.36 L1164.972,2846.36 C1160.508,2853.704 1152.444,2857.592 1141.068,2857.592 C1116.876,2857.592 1101.036,2839.016 1101.036,2814.824 C1101.036,2790.92 1117.308,2772.344 1140.636,2772.344 C1149.852,2772.344 1157.34,2775.08 1164.108,2781.848 L1164.108,2748.44 L1188.012,2748.44 L1188.012,2855 Z M1144.956,2835.272 C1156.62,2835.272 1165.404,2826.488 1165.404,2814.68 C1165.404,2803.592 1156.908,2794.664 1145.1,2794.664 C1133.868,2794.664 1124.94,2803.016 1124.94,2814.68 C1124.94,2826.776 1133.436,2835.272 1144.956,2835.272 Z M1264.044,2847.944 L1264.044,2845.64 C1260.444,2853.272 1251.516,2857.592 1241.724,2857.592 C1218.396,2857.592 1201.548,2839.592 1201.548,2815.544 C1201.548,2791.064 1218.684,2772.488 1241.724,2772.488 C1252.092,2772.488 1260.012,2776.376 1263.9,2782.568 L1264.188,2782.568 L1264.188,2775.08 L1288.092,2775.08 L1288.092,2846.504 C1288.092,2857.304 1286.652,2865.512 1283.772,2870.984 C1278.012,2882.072 1262.316,2890.568 1242.3,2890.568 C1219.692,2890.568 1205.004,2877.752 1202.988,2862.488 L1230.636,2862.488 C1233.372,2868.392 1238.7,2870.408 1244.604,2870.408 C1256.7,2870.408 1264.044,2862.488 1264.044,2847.944 Z M1244.604,2835.272 C1256.268,2835.272 1264.188,2826.92 1264.188,2815.4 C1264.188,2803.736 1256.268,2794.808 1244.604,2794.808 C1233.948,2794.808 1225.452,2803.736 1225.452,2814.68 C1225.452,2825.912 1233.084,2835.272 1244.604,2835.272 Z M1384.284,2822.312 L1324.38,2822.312 C1325.676,2831.384 1333.308,2837.432 1343.1,2837.432 C1349.58,2837.432 1353.756,2834.984 1357.644,2829.944 L1382.124,2829.944 C1374.492,2847.368 1359.948,2857.592 1343.1,2857.592 C1320.06,2857.592 1300.764,2839.016 1300.764,2815.256 C1300.764,2792.216 1319.196,2772.344 1342.668,2772.344 C1366.572,2772.344 1384.86,2791.208 1384.86,2815.976 C1384.86,2818.28 1384.716,2820.152 1384.284,2822.312 Z M1324.668,2806.184 L1360.956,2806.184 C1359.084,2797.976 1351.884,2792.504 1342.668,2792.504 C1334.028,2792.504 1326.54,2797.688 1324.668,2806.184 Z" id="ExpertKnowledge" fill="#FFFFFF"></path>
            <path d="M3169.012,2634.904 L3140.5,2634.904 C3135.892,2623.24 3125.812,2616.328 3114.724,2616.328 C3097.732,2616.328 3086.212,2630.872 3086.212,2647.432 C3086.212,2664.712 3098.02,2679.112 3114.868,2679.112 C3125.668,2679.112 3134.884,2673.064 3140.5,2661.112 L3169.012,2661.112 C3162.388,2686.744 3140.356,2703.016 3115.156,2703.016 C3100.324,2703.016 3086.356,2697.832 3075.412,2687.032 C3063.892,2675.8 3058.996,2662.264 3058.996,2646.136 C3058.996,2617.912 3083.332,2592.424 3113.86,2592.424 C3128.548,2592.424 3140.356,2596.456 3151.012,2605.528 C3161.092,2614.168 3167.14,2623.96 3169.012,2634.904 Z M3206.02,2701 L3182.116,2701 L3182.116,2594.44 L3206.02,2594.44 L3206.02,2701 Z M3302.5,2668.312 L3242.596,2668.312 C3243.892,2677.384 3251.524,2683.432 3261.316,2683.432 C3267.796,2683.432 3271.972,2680.984 3275.86,2675.944 L3300.34,2675.944 C3292.708,2693.368 3278.164,2703.592 3261.316,2703.592 C3238.276,2703.592 3218.98,2685.016 3218.98,2661.256 C3218.98,2638.216 3237.412,2618.344 3260.884,2618.344 C3284.788,2618.344 3303.076,2637.208 3303.076,2661.976 C3303.076,2664.28 3302.932,2666.152 3302.5,2668.312 Z M3242.884,2652.184 L3279.172,2652.184 C3277.3,2643.976 3270.1,2638.504 3260.884,2638.504 C3252.244,2638.504 3244.756,2643.688 3242.884,2652.184 Z M3400.276,2701 L3376.372,2701 L3376.372,2692.36 L3376.084,2692.36 C3372.628,2699.416 3363.124,2703.736 3352.612,2703.736 C3328.996,2703.736 3312.58,2685.16 3312.58,2660.968 C3312.58,2637.352 3329.716,2618.344 3352.612,2618.344 C3362.404,2618.344 3371.476,2622.232 3376.084,2629.576 L3376.372,2629.576 L3376.372,2621.08 L3400.276,2621.08 L3400.276,2701 Z M3356.356,2681.416 C3367.588,2681.416 3376.372,2672.488 3376.372,2660.968 C3376.372,2649.736 3367.3,2640.664 3356.068,2640.664 C3345.124,2640.664 3336.484,2649.736 3336.484,2661.256 C3336.484,2672.344 3345.268,2681.416 3356.356,2681.416 Z M3441.46,2701 L3417.556,2701 L3417.556,2621.08 L3440.02,2621.08 L3440.02,2629.576 L3440.308,2629.576 C3444.484,2621.08 3451.108,2618.344 3460.324,2618.344 L3460.324,2642.392 C3446.068,2642.536 3441.46,2647.864 3441.46,2656.936 L3441.46,2701 Z M2777.836,2788.904 L2749.324,2788.904 C2744.716,2777.24 2734.636,2770.328 2723.548,2770.328 C2706.556,2770.328 2695.036,2784.872 2695.036,2801.432 C2695.036,2818.712 2706.844,2833.112 2723.692,2833.112 C2734.492,2833.112 2743.708,2827.064 2749.324,2815.112 L2777.836,2815.112 C2771.212,2840.744 2749.18,2857.016 2723.98,2857.016 C2709.148,2857.016 2695.18,2851.832 2684.236,2841.032 C2672.716,2829.8 2667.82,2816.264 2667.82,2800.136 C2667.82,2771.912 2692.156,2746.424 2722.684,2746.424 C2737.372,2746.424 2749.18,2750.456 2759.836,2759.528 C2769.916,2768.168 2775.964,2777.96 2777.836,2788.904 Z M2873.308,2814.68 C2873.308,2839.736 2854.3,2857.448 2830.252,2857.448 C2805.916,2857.448 2787.196,2839.448 2787.196,2814.968 C2787.196,2790.2 2806.348,2772.488 2830.252,2772.488 C2854.3,2772.488 2873.308,2790.488 2873.308,2814.68 Z M2830.252,2835.128 C2841.484,2835.128 2849.404,2825.624 2849.404,2814.968 C2849.404,2804.312 2841.34,2794.808 2830.108,2794.808 C2819.596,2794.808 2811.1,2804.024 2811.1,2814.968 C2811.1,2825.912 2819.452,2835.128 2830.252,2835.128 Z M3009.532,2855 L2985.628,2855 L2985.628,2811.944 C2985.628,2799.416 2981.596,2794.808 2973.388,2794.808 C2964.316,2794.808 2960.14,2800.28 2960.14,2810.792 L2960.14,2855 L2936.236,2855 L2936.236,2810.936 C2936.236,2800.568 2932.492,2794.808 2924.284,2794.808 C2914.924,2794.808 2910.748,2800.856 2910.748,2811.944 L2910.748,2855 L2886.844,2855 L2886.844,2775.08 L2909.164,2775.08 L2909.164,2783.576 L2909.452,2783.576 C2913.628,2776.088 2921.26,2772.344 2931.484,2772.344 C2941.852,2772.344 2949.484,2777.528 2954.524,2786.6 C2960.284,2777.528 2968.924,2772.344 2979.868,2772.344 C2997.724,2772.344 3009.532,2783.288 3009.532,2805.608 L3009.532,2855 Z M3149.068,2855 L3125.164,2855 L3125.164,2811.944 C3125.164,2799.416 3121.132,2794.808 3112.924,2794.808 C3103.852,2794.808 3099.676,2800.28 3099.676,2810.792 L3099.676,2855 L3075.772,2855 L3075.772,2810.936 C3075.772,2800.568 3072.028,2794.808 3063.82,2794.808 C3054.46,2794.808 3050.284,2800.856 3050.284,2811.944 L3050.284,2855 L3026.38,2855 L3026.38,2775.08 L3048.7,2775.08 L3048.7,2783.576 L3048.988,2783.576 C3053.164,2776.088 3060.796,2772.344 3071.02,2772.344 C3081.388,2772.344 3089.02,2777.528 3094.06,2786.6 C3099.82,2777.528 3108.46,2772.344 3119.404,2772.344 C3137.26,2772.344 3149.068,2783.288 3149.068,2805.608 L3149.068,2855 Z M3237.052,2855 L3214.444,2855 L3214.444,2846.504 L3214.156,2846.504 C3210.7,2853.848 3204.364,2857.592 3193.564,2857.592 C3176.716,2857.592 3162.748,2847.512 3162.748,2824.76 L3162.748,2775.08 L3186.652,2775.08 L3186.652,2819.864 C3186.652,2830.376 3190.396,2835.272 3199.468,2835.272 C3208.54,2835.272 3213.148,2829.224 3213.148,2819.432 L3213.148,2775.08 L3237.052,2775.08 L3237.052,2855 Z M3328.348,2855 L3304.444,2855 L3304.444,2810.648 C3304.444,2799.848 3300.7,2794.808 3291.916,2794.808 C3282.268,2794.808 3278.236,2800.136 3278.236,2810.936 L3278.236,2855 L3254.332,2855 L3254.332,2775.08 L3276.652,2775.08 L3276.652,2783.576 L3276.94,2783.576 C3281.98,2775.368 3289.036,2772.344 3298.684,2772.344 C3313.084,2772.344 3328.348,2780.408 3328.348,2804.024 L3328.348,2855 Z M3369.244,2766.584 L3345.34,2766.584 L3345.34,2748.44 L3369.244,2748.44 L3369.244,2766.584 Z M3369.244,2855 L3345.34,2855 L3345.34,2775.08 L3369.244,2775.08 L3369.244,2855 Z M3467.164,2805.896 L3442.972,2805.896 C3439.516,2798.408 3433.324,2794.664 3425.116,2794.664 C3414.172,2794.664 3406.684,2803.736 3406.684,2814.968 C3406.684,2826.632 3414.604,2835.272 3425.692,2835.272 C3433.756,2835.272 3439.372,2831.528 3442.972,2824.616 L3467.308,2824.616 C3462.556,2844.632 3445.42,2857.592 3424.972,2857.592 C3401.356,2857.592 3382.636,2838.44 3382.636,2814.824 C3382.636,2790.92 3401.5,2772.344 3424.54,2772.344 C3445.564,2772.344 3462.7,2785.592 3467.164,2805.896 Z M3564.364,2855 L3540.46,2855 L3540.46,2846.36 L3540.172,2846.36 C3536.716,2853.416 3527.212,2857.736 3516.7,2857.736 C3493.084,2857.736 3476.668,2839.16 3476.668,2814.968 C3476.668,2791.352 3493.804,2772.344 3516.7,2772.344 C3526.492,2772.344 3535.564,2776.232 3540.172,2783.576 L3540.46,2783.576 L3540.46,2775.08 L3564.364,2775.08 L3564.364,2855 Z M3520.444,2835.416 C3531.676,2835.416 3540.46,2826.488 3540.46,2814.968 C3540.46,2803.736 3531.388,2794.664 3520.156,2794.664 C3509.212,2794.664 3500.572,2803.736 3500.572,2815.256 C3500.572,2826.344 3509.356,2835.416 3520.444,2835.416 Z M3611.164,2855 L3587.26,2855 L3587.26,2793.224 L3575.452,2793.224 L3575.452,2775.08 L3587.26,2775.08 L3587.26,2748.44 L3611.164,2748.44 L3611.164,2775.08 L3622.684,2775.08 L3622.684,2793.224 L3611.164,2793.224 L3611.164,2855 Z M3656.956,2766.584 L3633.052,2766.584 L3633.052,2748.44 L3656.956,2748.44 L3656.956,2766.584 Z M3656.956,2855 L3633.052,2855 L3633.052,2775.08 L3656.956,2775.08 L3656.956,2855 Z M3756.604,2814.68 C3756.604,2839.736 3737.596,2857.448 3713.548,2857.448 C3689.212,2857.448 3670.492,2839.448 3670.492,2814.968 C3670.492,2790.2 3689.644,2772.488 3713.548,2772.488 C3737.596,2772.488 3756.604,2790.488 3756.604,2814.68 Z M3713.548,2835.128 C3724.78,2835.128 3732.7,2825.624 3732.7,2814.968 C3732.7,2804.312 3724.636,2794.808 3713.404,2794.808 C3702.892,2794.808 3694.396,2804.024 3694.396,2814.968 C3694.396,2825.912 3702.748,2835.128 3713.548,2835.128 Z M3844.156,2855 L3820.252,2855 L3820.252,2810.648 C3820.252,2799.848 3816.508,2794.808 3807.724,2794.808 C3798.076,2794.808 3794.044,2800.136 3794.044,2810.936 L3794.044,2855 L3770.14,2855 L3770.14,2775.08 L3792.46,2775.08 L3792.46,2783.576 L3792.748,2783.576 C3797.788,2775.368 3804.844,2772.344 3814.492,2772.344 C3828.892,2772.344 3844.156,2780.408 3844.156,2804.024 L3844.156,2855 Z" id="ClearCommunication" fill="#FFFFFF"></path>
            <g id="WF_logo_navy" transform="translate(1951.000000, 2109.000000)" fill="#011E41">
                <path d="M109.45,217.92 C111.49,216.96 113.32,215.34 114.94,213.03 C116.56,210.72 117.37,207.93 117.37,204.69 C117.37,199.11 115.63,194.73 112.12,191.52 C108.61,188.31 103.75,186.69 97.57,186.69 L71.83,186.69 L71.83,250.86 L98.65,250.86 C104.53,250.86 109.27,249.24 112.87,246 C116.47,242.76 118.27,238.2 118.27,232.38 C118.27,228.48 117.4,225.36 115.72,223.08 C113.98,220.77 111.91,219.06 109.45,217.92 Z M84.34,197.85 L96.58,197.85 C99.16,197.85 101.17,198.51 102.64,199.86 C104.11,201.21 104.83,202.98 104.83,205.23 C104.83,207.51 104.11,209.31 102.67,210.63 C101.23,211.95 99.19,212.61 96.55,212.61 L84.31,212.61 L84.31,197.85 L84.34,197.85 Z M103.6,237.45 C102.16,238.95 100.09,239.7 97.39,239.7 L84.34,239.7 L84.34,223.86 L97.39,223.86 C100.15,223.86 102.25,224.61 103.66,226.08 C105.07,227.55 105.76,229.44 105.76,231.75 C105.76,234.06 105.04,235.92 103.6,237.45 Z M106.12,38.76 L131.41,38.76 L131.41,27.6 L106.12,27.6 L106.12,11.85 L135.82,11.85 L135.82,0.69 L93.61,0.69 L93.61,64.86 L106.12,64.86 L106.12,38.76 Z M66.25,0.69 L56.26,41.1 L44.56,0.69 L35.2,0.69 L23.5,41.1 L13.6,0.69 L0.55,0.69 L17.65,64.86 L28.09,64.86 L39.88,25.98 L51.67,64.86 L62.11,64.86 L79.3,0.69 L66.25,0.69 Z M48.07,100.35 C45.61,97.89 42.94,96.15 40.06,95.16 C37.18,94.17 34.03,93.66 30.61,93.66 L7.48,93.66 L7.48,157.83 L30.61,157.83 C33.97,157.83 37.12,157.32 40.12,156.24 C43.09,155.19 45.55,153.66 47.53,151.68 C50.35,148.86 52.12,145.77 52.9,142.41 C53.65,139.05 54.04,134.76 54.04,129.51 L54.04,121.41 C54.04,116.31 53.68,112.14 52.9,108.87 C52.12,105.69 50.53,102.81 48.07,100.35 Z M41.02,137.1 C40.69,139.47 39.7,141.66 38.05,143.67 C36.4,145.68 33.55,146.7 29.47,146.7 L20.02,146.7 L20.02,104.85 L29.47,104.85 C31.63,104.85 33.46,105.18 34.96,105.84 C36.46,106.5 37.75,107.49 38.83,108.81 C39.97,110.25 40.69,112.11 41.02,114.36 C41.35,116.61 41.53,120.33 41.53,125.49 C41.5,130.86 41.35,134.73 41.02,137.1 Z M110.8,146.7 L81.1,146.7 L81.1,131.04 L106.39,131.04 L106.39,119.88 L81.1,119.88 L81.1,104.85 L110.8,104.85 L110.8,93.69 L68.59,93.69 L68.59,157.86 L110.8,157.86 L110.8,146.7 Z M148.96,147.15 C145.78,147.15 142.87,146.73 140.26,145.89 C137.65,145.05 135.37,143.67 133.45,141.75 L125.35,149.85 C128.41,152.97 131.8,155.16 135.52,156.42 C139.24,157.68 143.65,158.31 148.75,158.31 C155.71,158.31 161.41,156.6 165.85,153.15 C170.29,149.7 172.51,144.96 172.51,138.9 C172.51,135.96 172.12,133.38 171.34,131.13 C170.56,128.88 169.03,126.72 166.78,124.65 C164.53,122.58 160.72,121.14 155.32,120.36 L147.76,119.28 C145.24,118.92 143.44,118.23 142.36,117.24 C141.28,116.25 140.59,115.41 140.32,114.69 C140.05,113.97 139.93,113.13 139.93,112.17 C139.93,109.77 140.77,107.82 142.45,106.32 C144.13,104.82 146.59,104.07 149.83,104.07 C152.29,104.07 154.63,104.37 156.88,105 C159.13,105.63 161.14,106.8 162.94,108.48 L170.86,100.65 C168.1,97.95 165.07,96.03 161.8,94.89 C158.53,93.75 154.66,93.18 150.16,93.18 C143.26,93.18 137.8,94.98 133.81,98.55 C129.82,102.12 127.84,106.83 127.84,112.62 C127.84,117.96 129.31,122.1 132.25,125.01 C135.19,127.92 139.39,129.75 144.85,130.53 L152.59,131.61 C153.97,131.79 155.11,132.09 156.01,132.48 C156.91,132.87 157.84,133.53 158.8,134.43 C159.76,135.33 160.24,136.95 160.24,139.29 C160.3,144.51 156.52,147.15 148.96,147.15 Z M318.79,193.35 C316.33,190.89 313.66,189.15 310.78,188.16 C307.9,187.17 304.75,186.66 301.33,186.66 L278.2,186.66 L278.2,250.83 L301.33,250.83 C304.69,250.83 307.84,250.32 310.84,249.24 C313.84,248.16 316.3,246.66 318.25,244.68 C321.07,241.86 322.87,238.77 323.62,235.41 C324.37,232.05 324.76,227.76 324.76,222.51 L324.76,214.41 C324.76,209.31 324.4,205.14 323.62,201.87 C322.84,198.69 321.25,195.81 318.79,193.35 Z M311.71,230.1 C311.38,232.47 310.39,234.66 308.74,236.67 C307.09,238.68 304.24,239.7 300.16,239.7 L290.71,239.7 L290.71,197.85 L300.16,197.85 C302.32,197.85 304.15,198.18 305.65,198.84 C307.15,199.5 308.44,200.49 309.52,201.81 C310.66,203.25 311.38,205.11 311.71,207.36 C312.04,209.61 312.22,213.33 312.22,218.49 C312.22,223.86 312.04,227.73 311.71,230.1 Z M312.94,93.69 L312.94,132.93 L287.56,93.69 L276.4,93.69 L276.4,157.86 L288.91,157.86 L288.91,118.53 L314.29,157.86 L325.45,157.86 L325.45,93.69 L312.94,93.69 Z M237.64,158.31 C241.12,158.31 244.39,157.71 247.42,156.54 C250.48,155.37 253.24,153.51 255.67,150.99 C257.89,148.65 259.45,145.98 260.38,142.95 C261.31,139.95 261.76,136.08 261.76,131.4 L261.76,122.01 L237.73,122.01 L237.73,132.54 L249.43,132.54 L249.43,135 C249.43,136.62 249.19,138.18 248.71,139.68 C248.23,141.18 247.21,142.8 245.62,144.54 C244.03,146.28 241.36,147.15 237.64,147.15 C234.22,147.15 231.7,146.25 230.08,144.39 C228.46,142.56 227.47,140.55 227.11,138.42 C226.75,136.26 226.57,132.03 226.57,125.73 C226.57,119.61 226.75,115.41 227.14,113.16 C227.53,110.91 228.55,108.87 230.17,107.04 C231.79,105.21 234.28,104.28 237.64,104.28 C243.82,104.28 247.66,107.37 249.16,113.55 L261.76,113.55 C260.8,107.7 258.28,102.84 254.26,98.94 C250.21,95.07 244.66,93.12 237.64,93.12 C234.04,93.12 230.86,93.69 228.07,94.86 C225.28,96.03 222.58,97.92 219.97,100.53 C217.36,103.14 215.71,106.23 215.08,109.8 C214.42,113.37 214.09,118.68 214.09,125.7 C214.09,132.78 214.39,138.06 215.02,141.57 C215.65,145.08 217.27,148.14 219.88,150.75 C222.49,153.36 225.25,155.25 228.13,156.48 C231.07,157.71 234.25,158.31 237.64,158.31 Z M234.46,186.69 L221.95,186.69 L221.95,250.86 L263.53,250.86 L263.53,239.7 L234.46,239.7 L234.46,186.69 Z M167.5,228.36 C167.5,232.08 166.48,234.99 164.47,237.03 C162.46,239.1 159.76,240.15 156.34,240.15 C152.92,240.15 150.22,239.1 148.24,237 C146.26,234.9 145.27,232.02 145.27,228.36 L145.27,186.69 L132.76,186.69 L132.76,228.81 C132.76,235.53 135.01,240.96 139.51,245.1 C144.01,249.24 149.62,251.31 156.34,251.31 C163.12,251.31 168.73,249.24 173.2,245.1 C177.67,240.96 179.89,235.53 179.89,228.81 L179.89,186.69 L167.47,186.69 L167.47,228.36 L167.5,228.36 Z M199.54,93.69 L187.03,93.69 L187.03,157.86 L199.54,157.86 L199.54,93.69 Z M194.5,250.86 L207.01,250.86 L207.01,186.69 L194.5,186.69 L194.5,250.86 Z" id="Shape"></path>
                <path d="M27.94,203.16 L16.96,203.16 L16.96,217.56 L2.47,217.56 L2.47,228.54 L16.96,228.54 L16.96,242.94 L27.94,242.94 L27.94,228.54 L42.34,228.54 L42.34,217.56 L27.94,217.56 L27.94,203.16 Z M251.05,9.06 L178.57,44.19 L178.57,55.14 L251.05,20.07 L323.53,55.14 L323.53,44.19 L251.05,9.06 Z" id="Shape"></path>
            </g>
        </g>
    </g>
</svg>